<svg fill="none" height="24" viewBox="0 0 24 24" width="24" xmlns="http://www.w3.org/2000/svg"><path clip-rule="evenodd" d="m24 12c0 6.6274-5.3726 12-12 12-6.62742 0-12-5.3726-12-12 0-6.62742 5.37258-12 12-12 6.6274 0 12 5.37258 12 12zm-5.8182-5h-12.1818v3.9091h12.1818zm-12.1818-1h-1v1 3.9091 1h1 12.1818 1v-1-3.9091-1h-1zm0 8.0909h3.90909v3.9091h-3.90909zm-1-1h1 3.90909 1.00001v1 3.9091 1h-1.00001-3.90909-1v-1-3.9091zm14.1818 2.3637h-5.9091v-1h5.9091zm-5.9091 2.3636h5.9091v-1h-5.9091z" fill="#222" fill-rule="evenodd"/></svg>