<svg fill="none" height="61" viewBox="0 0 63 61" width="63" xmlns="http://www.w3.org/2000/svg" xmlns:xlink="http://www.w3.org/1999/xlink"><linearGradient id="a"><stop offset=".18" stop-color="#0052cc"/><stop offset="1" stop-color="#2684ff"/></linearGradient><linearGradient id="b" gradientUnits="userSpaceOnUse" x1="59.68" x2="20.35" xlink:href="#a" y1="64.65" y2="42.05"/><linearGradient id="c" gradientUnits="userSpaceOnUse" x1="3.07006" x2="42.4101" xlink:href="#a" y1="-3.37012" y2="19.2399"/><path d="m2.22997 46.53c-.65 1.06-1.380004 2.29-2.000004 3.27-.2667675.4508-.346026.9882-.22074176 1.4969.12528476.5086.44511176.9477.89074176 1.2231l13.000034 8c.2259.1394.4773.2325.7395.2738.2623.0413.5302.03.788-.0333s.5005-.1773.7138-.3353c.2133-.1581.393-.357.5287-.5852.52-.87 1.19-2 1.92-3.21 5.15-8.5 10.33-7.46 19.67-3l12.89 6.13c.2416.115.5039.1803.7712.1921.2674.0118.5344-.0301.7852-.1234.2508-.0932.4804-.2358.6751-.4194s.3506-.4044.4585-.6493l6.19-14c.2102-.4806.2231-1.0246.0361-1.5147-.1871-.49-.5592-.887-1.0361-1.1053-2.72-1.28-8.13-3.83-13-6.18-17.52-8.51-32.41-7.96-43.80003 10.57z" fill="url(#b)"/><path d="m60.5201 14.7599c.65-1.06 1.38-2.29 2-3.27.2667-.4508.346-.9883.2207-1.49691-.1253-.50862-.4451-.94778-.8907-1.2231l-13-8.000005c-.2276-.153289-.4843-.258105-.7542-.307929-.2698-.049823-.547-.043588-.8143.018319-.2674.061906-.5191.17816-.7395.341527-.2205.163368-.405.370358-.542.608078-.52.87-1.19 2-1.92 3.21-5.15 8.50002-10.33 7.46002-19.67 3.00001l-12.85-6.10001c-.2417-.11501-.5039-.18036-.7713-.19217-.2673-.01181-.5343.03014-.7852.12339-.25083.09325-.4804.23589-.67511.41948-.19472.18358-.3506.40438-.45843.64931l-6.19 14.00001c-.21021.4806-.22318 1.0245-.03613 1.5146s.55916.8871 1.03613 1.1054c2.72 1.28 8.13004 3.83 13.00004 6.18 17.56 8.5 32.45 7.93 43.84-10.58z" fill="url(#c)"/></svg>