<svg enable-background="new 0 0 1080 1080" height="1080" viewBox="0 0 1080 1080" width="1080" xmlns="http://www.w3.org/2000/svg" xmlns:xlink="http://www.w3.org/1999/xlink"><radialGradient id="a" cx="538.4626" cy="539.2802" gradientUnits="userSpaceOnUse" r="528.3827"><stop offset="0" stop-color="#fff" stop-opacity=".1"/><stop offset="1" stop-color="#fff" stop-opacity="0"/></radialGradient><path d="m225.6 852.14-180.76-180.76c-21.41-22.01-34.76-53.08-34.76-83.43 0-14.05 7.94-36.03 13.9-48.67l166.86-347.62z" fill="#01579b"/><path d="m844.37 226.42-180.76-180.76c-15.79-15.85-48.67-34.76-76.48-34.76-23.9 0-47.36 4.78-62.57 13.9l-333.72 166.86z" fill="#40c4ff"/><path d="m441.13 1067.66h438v-187.71l-326.76-104.29-298.96 104.29z" fill="#40c4ff"/><path d="m190.84 754.8c0 55.77 6.99 69.45 34.76 97.33l27.81 27.81h625.72l-305.91-347.61-382.38-340.67z" fill="#29b6f6"/><path d="m747.03 191.66h-556.19l688.29 688.29h187.71v-431.05l-222.47-222.48c-31.25-31.37-59-34.76-97.34-34.76z" fill="#01579b"/><path d="m232.56 859.09c-27.81-27.92-34.76-55.43-34.76-104.29v-556.19l-6.95-6.95v563.14c-.01 48.86-.01 62.41 41.71 104.29l20.86 20.86z" fill="#fff" opacity=".2"/><path d="m1059.89 441.95v431.05h-187.71l6.95 6.95h187.72v-431.05z" fill="#263238" opacity=".2"/><path d="m844.37 226.42c-34.46-34.46-62.73-34.76-104.29-34.76h-549.24l6.95 6.95h542.29c20.78 0 73.12-3.47 104.29 27.81z" fill="#fff" opacity=".2"/><path d="m1059.89 441.95-215.52-215.53-180.76-180.76c-15.79-15.85-48.67-34.76-76.48-34.76-23.9 0-47.36 4.78-62.57 13.9l-333.72 166.86-166.86 347.62c-5.96 12.64-13.9 34.61-13.9 48.67 0 30.35 13.35 61.41 34.76 83.43l166.58 165.38c3.99 4.86 8.66 9.84 14.18 15.38l6.95 6.95 20.86 20.86 180.76 180.76 6.95 6.95h431.05 6.95v-187.71h187.71v-.5-430.55z" fill="url(#a)" opacity=".2"/></svg>