<svg fill="none" height="24" viewBox="0 0 24 24" width="24" xmlns="http://www.w3.org/2000/svg"><path clip-rule="evenodd" d="m12 24c3.1729 0 6.0582-1.2314 8.204-3.2424l-5.7787-6.8868-2.0411 2.4493c-.095.114-.2357.1799-.3841.1799s-.2891-.0659-.3841-.1799l-2.07247-2.4869-5.78259 6.8914c2.1494 2.0305 5.04885 3.2754 8.23906 3.2754zm-3.10693-10.9474-6.67314-8.00767c-1.39779 1.96201-2.21993 4.36253-2.21993 6.95507 0 3.0756 1.15708 5.881 3.05969 8.0046zm-6.04442-8.81525c2.20115-2.59235 5.48414-4.23735 9.15135-4.23735 3.6672 0 6.9502 1.645 9.1514 4.23736l-9.1513 10.98164zm18.93145.80759c1.3978 1.962 2.2199 4.36252 2.2199 6.95506 0 3.0931-1.1703 5.9129-3.0922 8.0407l-5.8321-6.9505z" fill="#222" fill-rule="evenodd"/></svg>