<svg fill="none" height="115" viewBox="0 0 114 115" width="114" xmlns="http://www.w3.org/2000/svg"><path d="m111.777 51.9769-49.7425-49.7387c-2.8622-2.864753-7.5082-2.864753-10.3745 0l-10.3286 10.3295 13.1021 13.1026c3.0459-1.0283 6.5371-.3389 8.9639 2.0884 2.4394 2.4424 3.124 5.9634 2.0697 9.0195l12.628 12.6275c3.0552-1.0527 6.58-.3726 9.0195 2.0712 3.4107 3.4097 3.4107 8.9345 0 12.3453-3.4111 3.4116-8.936 3.4116-12.3486 0-2.5645-2.5665-3.1987-6.3345-1.8999-9.4943l-11.7768-11.7772-.001 30.9911c.8315.4116 1.6162.961 2.3091 1.6509 3.4096 3.4092 3.4096 8.9331 0 12.3477-3.4106 3.4092-8.938 3.4092-12.3453 0-3.4101-3.4146-3.4101-8.9385 0-12.3477.8428-.8413 1.8179-1.478 2.8584-1.9048v-31.2787c-1.0405-.4254-2.0141-1.0576-2.8584-1.9049-2.583-2.581-3.2051-6.372-1.8803-9.5439l-12.9155-12.918-34.10652 34.1045c-2.865722 2.8672-2.865722 7.5132 0 10.3784l49.74172 49.7387c2.8638 2.865 7.5083 2.865 10.376 0l49.5095-49.5082c2.865-2.8662 2.865-7.5136 0-10.3789z" fill="#f03c2e"/></svg>