<svg fill="none" height="24" viewBox="0 0 24 24" width="24" xmlns="http://www.w3.org/2000/svg"><path clip-rule="evenodd" d="m12 0c-6.63 0-12 5.50583-12 12.3035 0 5.4443 3.435 10.0428 8.205 11.673.6.1077.825-.2615.825-.5844 0-.2922-.015-1.2611-.015-2.2916-3.015.5691-3.795-.7535-4.035-1.4456-.135-.3537-.72-1.4457-1.23-1.7379-.42-.2307-1.02-.7997-.015-.8151.945-.0154 1.62.892 1.845 1.2611 1.08 1.8609 2.805 1.338 3.495 1.0151.105-.7998.42-1.3381.765-1.6456-2.67-.3076-5.46-1.3688-5.46-6.0749 0-1.338.465-2.44533 1.23-3.30658-.12-.30759-.54-1.5687.12-3.26044 0 0 1.005-.32296 3.3 1.26112.96-.27683 1.98-.41525 3-.41525s2.04.13842 3 .41525c2.295-1.59946 3.3-1.26112 3.3-1.26112.66 1.69174.24 2.95285.12 3.26044.765.86125 1.23 1.95318 1.23 3.30658 0 4.7215-2.805 5.7673-5.475 6.0749.435.3844.81 1.1227.81 2.2761 0 1.6456-.015 2.9682-.015 3.3835 0 .3229.225.7074.825.5844 4.74-1.6302 8.175-6.244 8.175-11.673 0-6.79767-5.37-12.3035-12-12.3035z" fill="#222" fill-rule="evenodd"/></svg>