<svg fill="none" height="311" viewBox="0 0 338 311" width="338" xmlns="http://www.w3.org/2000/svg"><path d="m168.801 310.967 62.199-191.322h-124.308z" fill="#e24329"/><path d="m19.572 119.645-18.940963 58.126c-1.713997 5.278.136996 11.104 4.660993 14.394l163.50897 118.801z" fill="#fca326"/><path d="m19.572 119.645h87.12l-37.494-115.22375c-1.919-5.895-10.282-5.895-12.27 0z" fill="#e24329"/><path d="m318.12 119.645 18.873 58.126c1.714 5.278-.137 11.104-4.661 14.394l-163.531 118.802z" fill="#fca326"/><path d="m318.12 119.645h-87.12l37.425-115.22375c1.919-5.895 10.282-5.895 12.27 0z" fill="#e24329"/><g fill="#fc6d26"><path d="m168.801 310.967 62.199-191.322h87.12z"/><path d="m168.801 310.967-149.229-191.322h87.12z"/></g></svg>