<svg width="398" height="451" viewBox="0 0 398 451" fill="none" xmlns="http://www.w3.org/2000/svg">
<path d="M1.33374 0.332031L1.39624 5.33203C1.43068 8.08203 9.39786 99.1327 19.1013 207.666L36.7439 405L116.039 427.201C159.651 439.412 196.234 449.464 197.334 449.541C198.434 449.618 235.5 439.667 279.703 427.428C350.573 407.805 360.141 404.849 360.648 402.42C361.355 399.036 396.061 7.52087 396.025 3.33203L396 0.332031H198.666H1.33374Z" fill="white"/>
<path d="M116.667 428.529L36.6667 406.168L35.6212 400.25C34.6919 394.991 0 7.51614 0 2.39652C0 0.543612 20.2556 0.333252 198.667 0.333252C386.99 0.333252 397.333 0.45472 397.318 2.66658C397.255 12.2199 361.346 404.825 360.464 405.607C359.349 406.594 204.507 449.732 199.333 450.497C197.867 450.714 160.667 440.828 116.667 428.529ZM249.111 349.516C276 342.1 298.388 335.65 298.862 335.183C299.336 334.716 302.483 302.833 305.854 264.333C309.226 225.833 312.325 191.783 312.741 188.667L313.497 183H255.415H197.333V207.667V232.333H228.692H260.051L259.427 235.333C259.084 236.983 257.75 251.163 256.463 266.843C255.1 283.458 253.483 295.993 252.589 296.888C251.744 297.732 238.966 301.644 224.193 305.582L197.333 312.741V337.871C197.333 355.022 197.792 363 198.778 363C199.572 363 222.222 356.932 249.111 349.516ZM312.732 152C311.851 145.467 304 57.8371 304 54.533C304 52.526 299.384 52.3333 251.333 52.3333H198.667V78.127V103.921L222.333 104.833C235.35 105.335 249.049 106.098 252.775 106.53L259.55 107.314L261.195 127.49C262.1 138.587 263.177 149.917 263.59 152.667L264.341 157.667H288.919H313.497L312.732 152Z" fill="#EAEBEC"/>
<path d="M116.038 427.201L36.7438 405L19.1011 207.667C9.39766 99.1332 1.43029 8.08325 1.39585 5.33325L1.33325 0.333252H198.667H396L396.026 3.33325C396.061 7.52209 361.355 399.037 360.648 402.421C360.14 404.85 350.573 407.806 279.703 427.429C235.5 439.669 198.433 449.62 197.333 449.542C196.233 449.465 159.651 439.412 116.038 427.201ZM249.171 350.459C276.582 342.838 299.398 335.974 299.873 335.204C300.349 334.435 303.623 300.924 307.15 260.736C310.677 220.548 313.852 186.617 314.204 185.333C314.811 183.129 310.147 183 229.691 183H144.535L148.161 144.667C150.155 123.583 151.835 106.279 151.893 106.212C151.952 106.145 164.45 105.747 179.667 105.326C204.618 104.636 256.071 106.627 257.793 108.348C258.436 108.991 262.667 150.499 262.667 156.165C262.667 158.959 263.044 159 288.503 159H314.339L313.73 153.333C313.395 150.217 311.207 126.067 308.867 99.6666L304.612 51.6666L204.973 51.3248C125.704 51.0528 105.331 51.3254 105.322 52.6581C105.315 53.5794 104.735 59.4333 104.031 65.6666C102.327 80.7501 89.3332 226.489 89.3332 230.514V233.667H174.117H258.901L258.145 238.667C257.729 241.417 256.412 255.367 255.216 269.667C254.021 283.967 252.659 296.036 252.188 296.487C250.946 297.68 201.069 311.005 197.959 310.975C196.515 310.961 183.633 307.747 169.333 303.833L143.333 296.716L142.38 285.524C141.855 279.369 141.058 270.583 140.607 266L139.788 257.667H114.56H89.3332L89.3891 262.667C89.4935 272.017 95.557 335.001 96.4375 335.882C97.4558 336.9 194.35 364.137 197.333 364.244C198.433 364.283 221.76 358.08 249.171 350.459Z" fill="#F0BE25"/>
<path d="M116.038 427.201L36.7438 405L19.1011 207.667C9.39766 99.1332 1.43029 8.08325 1.39585 5.33325L1.33325 0.333252H198.667H396L396.026 3.33325C396.061 7.52209 361.355 399.037 360.648 402.421C360.14 404.85 350.573 407.806 279.703 427.429C235.5 439.669 198.433 449.62 197.333 449.542C196.233 449.465 159.651 439.412 116.038 427.201ZM263.913 397.5C298.794 387.875 327.988 379.325 328.789 378.5C330.035 377.216 360.161 47.046 360.04 35.9999L360 32.3333H279.333H198.667V41.6666V50.9999H152C115.561 50.9999 105.331 51.3652 105.322 52.6666C105.315 53.5833 104.735 59.4333 104.031 65.6666C102.327 80.7501 89.3332 226.489 89.3332 230.514V233.667H144H198.667V272.333C198.667 302.391 198.296 310.994 197 310.975C196.083 310.961 183.633 307.747 169.333 303.833L143.333 296.716L142.38 285.524C141.855 279.369 141.058 270.583 140.607 266L139.788 257.667H114.56H89.3332L89.3891 262.667C89.5489 276.968 95.7356 335.346 97.1866 336.243C98.0685 336.788 121.262 343.452 148.728 351.052L198.667 364.871V389.936C198.667 403.721 199.077 415 199.58 415C200.082 415 229.032 407.125 263.913 397.5ZM148.02 145.025C149.937 124.139 151.767 106.813 152.086 106.525C152.405 106.236 163.017 105.713 175.667 105.363L198.667 104.727V143.863V183H171.601H144.535L148.02 145.025Z" fill="#E4A126"/>
</svg>
