<svg fill="none" height="132" viewBox="0 0 129 132" width="129" xmlns="http://www.w3.org/2000/svg" xmlns:xlink="http://www.w3.org/1999/xlink"><linearGradient id="a"><stop offset="0" stop-color="#0052cc"/><stop offset="1" stop-color="#2684ff"/></linearGradient><linearGradient id="b" gradientUnits="userSpaceOnUse" x1="56.3547" x2="34.0275" xlink:href="#a" y1="31.6786" y2="54.0002"/><linearGradient id="c" gradientUnits="userSpaceOnUse" x1="73.3553" x2="95.6378" xlink:href="#a" y1="100.104" y2="77.8216"/><path d="m126.99 62.3078-56.7551-56.75517-5.5006-5.4964777-62.25151 62.2516477c-2.034995 2.0406-2.034995 5.3439 0 7.3803l39.03211 39.0309 23.2194 23.225 62.2557-62.2559c2.037-2.0364 2.037-5.3397 0-7.3803zm-62.2557 23.1862-19.4945-19.4932 19.4945-19.5003 19.4988 19.5003z" fill="#2684ff"/><path d="m64.7344 46.5004c-12.763-12.7685-12.8282-33.4484-.1358-46.291904l-42.6696 42.653104 23.2249 23.225z" fill="url(#b)"/><path d="m84.2873 65.9453-19.5529 19.5487c6.1618 6.1562 9.6274 14.512 9.6274 23.225 0 8.712-3.4656 17.063-9.6274 23.225l42.7726-42.7737z" fill="url(#c)"/></svg>