<svg enable-background="new 0 0 300 295" height="295" viewBox="0 0 300 295" width="300" xmlns="http://www.w3.org/2000/svg" xmlns:xlink="http://www.w3.org/1999/xlink"><linearGradient id="a"><stop offset="0" stop-color="#a0cbff"/><stop offset=".3941" stop-color="#a0cbfe"/><stop offset=".583" stop-color="#8ec2fc"/><stop offset=".7838" stop-color="#83bcfb"/><stop offset="1" stop-color="#7fbafb"/></linearGradient><linearGradient id="b" gradientUnits="userSpaceOnUse" x1="72.9053" x2="187.9056" xlink:href="#a" y1="-15.4063" y2="227.5943"/><linearGradient id="c" gradientUnits="userSpaceOnUse" x1="113.7256" x2="178.7258" y1="26.9546" y2="242.9553"><stop offset="0" stop-color="#090058"/><stop offset="1" stop-color="#070033"/></linearGradient><linearGradient id="d" gradientUnits="userSpaceOnUse" x1="37.1362" x2="152.1362" xlink:href="#a" y1="-2.478" y2="240.522"/><linearGradient id="e" gradientUnits="userSpaceOnUse" x1="102.6431" x2="218.0972" xlink:href="#a" y1="-34.2061" y2="209.7536"/><path d="m0 0h300v295h-300z" fill="url(#b)"/><path d="m23.859 23.459h252.284v248.082h-252.284z" fill="url(#c)"/><path d="m72.498 83.144s18.968-.499 34.582-.499c15.778 0 27.028 3.712 34.581 10.235 7.219 6.164 12.087 16.672 12.087 28.634s-3.694 21.75-10.41 28.633c-8.729 8.881-18.901 14.137-36.258 14.865-4.795.201-9.233.249-9.233.249v38.884h-25.35zm25.348 60.573c2.754.268 4.48.139 8.562.09 13.598-.163 21.989-8.432 21.989-20.937 0-11.234-6.919-20.458-19.973-20.936-5.203-.19-10.578 0-10.578 0z" fill="url(#d)"/><path d="m163.422 177.055c5.109 3.135 17.165 7.83 25.383 7.83 8.396 0 11.863-2.959 11.863-7.572 0-4.619-2.738-9.471-13.145-12.979-18.439-6.279-25.559-13.795-25.375-24.315 0-16.991 14.238-29.731 36.328-29.731 10.407 0 18.719 3.402 24.192 6.17v20.392c-4.019-2.218-15.612-7.17-23.278-7.17-6.758 0-10.59 2.769-10.59 7.382 0 4.248 3.471 6.464 14.424 10.344 16.976 5.908 24.096 14.584 24.277 27.879 0 16.805-12.954 30.168-38.701 29.357-8.835-.278-18.624-3.77-25.379-7.459v-20.128z" fill="url(#e)"/></svg>