<svg fill="none" height="127" viewBox="0 0 127 127" width="127" xmlns="http://www.w3.org/2000/svg"><path d="m27.2001 80c0 7.3-5.9001 13.2-13.2001 13.2-7.29995 0-13.199951-5.9-13.199951-13.2s5.900001-13.2 13.199951-13.2h13.2001zm6.5999 0c0-7.3 5.9-13.2 13.2-13.2s13.2001 5.9 13.2001 13.2v33c0 7.3-5.9001 13.2-13.2001 13.2s-13.2-5.9-13.2-13.2z" fill="#e01e5a"/><path d="m47 27.0001c-7.3 0-13.2001-5.9-13.2001-13.2s5.9001-13.200002 13.2001-13.200002 13.2 5.900002 13.2 13.200002v13.2zm0 6.7c7.3 0 13.2 5.9 13.2 13.2s-5.9 13.2-13.2 13.2h-33.1c-7.30005 0-13.200049-5.9-13.200049-13.2s5.899999-13.2 13.200049-13.2z" fill="#36c5f0"/><path d="m99.8999 46.9001c0-7.3 5.9001-13.2 13.2001-13.2s13.2 5.9 13.2 13.2-5.9 13.2-13.2 13.2h-13.2001zm-6.6 0c0 7.3-5.9 13.2-13.2 13.2s-13.2-5.9-13.2-13.2v-33.1c0-7.3 5.9-13.200002 13.2-13.200002s13.2 5.900002 13.2 13.200002z" fill="#2eb67d"/><path d="m80.0999 99.8c7.3 0 13.2 5.9 13.2 13.2s-5.9 13.2-13.2 13.2-13.2-5.9-13.2-13.2v-13.2zm0-6.6c-7.3 0-13.2-5.9-13.2-13.2s5.9-13.2 13.2-13.2h33.1001c7.3 0 13.2 5.9 13.2 13.2s-5.9 13.2-13.2 13.2z" fill="#ecb22e"/></svg>