<svg width="340" height="263" viewBox="0 0 340 263" fill="none" xmlns="http://www.w3.org/2000/svg">
<g id="Vector">
<path fill-rule="evenodd" clip-rule="evenodd" d="M91.7398 128.558C91.7523 128.567 91.7648 128.576 91.7774 128.586H91.7058C91.7028 128.566 91.6997 128.546 91.6967 128.526C91.711 128.537 91.7254 128.548 91.7398 128.558ZM213.763 134.1C213.774 134.129 213.784 134.157 213.795 134.185H213.705C213.722 134.152 213.74 134.121 213.759 134.091C213.76 134.094 213.762 134.097 213.763 134.1ZM252.574 245.765C252.535 245.779 252.496 245.794 252.456 245.808H252.546C252.555 245.794 252.565 245.779 252.574 245.765Z" fill="black"/>
<path fill-rule="evenodd" clip-rule="evenodd" d="M339.481 206.941C316.678 208.458 293.868 209.754 271.053 210.83C270.755 207.284 270.156 203.776 269.263 200.35C291.935 199.702 314.607 198.944 337.279 198.075C337.395 198.06 337.503 198.004 337.587 197.917C337.671 197.829 337.726 197.714 337.745 197.589C337.76 197.437 337.72 197.285 337.633 197.165C337.546 197.045 337.419 196.967 337.279 196.948C314.512 197.868 291.75 198.626 268.995 199.223C263.625 178.885 252.295 159.539 239.086 144.218C238.674 139.046 238.656 136.441 236.616 131.249C232.678 121.431 228.329 119.389 228.436 121.722C228.435 122.337 228.525 122.947 228.704 123.53C227.988 122.558 222.726 116.609 221.652 119.817C220.86 119.276 219.966 118.935 219.037 118.821C218.107 118.706 217.166 118.821 216.283 119.156C212.935 113.323 207.333 113.323 203.753 111.378C196.916 107.49 200.066 95.085 205.096 90.4576C205.096 90.4576 226.7 90.0104 226.718 89.7187C227.111 84.2163 231.425 0.474677 231.425 0.474677C178.194 -0.672469 120.917 0.474674 68.0792 1.64126C67.7212 1.64126 67.4169 1.89403 67.4527 2.244C70.6387 31.7004 78.4606 91.9936 78.4606 91.9936C79.7054 92.5382 188.924 90.7063 202.665 90.4758L203.753 90.4576C200.76 94.0037 199.122 98.6544 199.171 103.465C199.529 115.714 208.496 110.503 215.835 119.467C211.074 121.683 210.465 128.236 212.255 132.921C212.58 133.82 213.02 134.664 213.562 135.43C213.637 137.257 214.116 139.037 214.958 140.621C217.249 145.346 221.33 146.979 221.545 147.679C221.545 158.684 223.675 172.099 225.697 182.832C218.878 178.943 198.652 169.669 177.853 169.008C179.035 157.867 187.895 156.467 186.678 149.02C190.383 148.865 194.088 148.709 197.793 148.515C198.724 148.515 197.703 145.404 197.596 144.879C196.092 137.685 194.583 130.504 193.068 123.336C192.835 122.364 191.797 115.831 190.92 115.831L179.375 116.064C176.833 113.439 170.873 112.467 168.439 115.52C164.859 108.034 153.797 109.123 153.439 116.395C150.414 114.159 145.922 113.712 143.183 116.745C142.897 116.881 88.7525 117.678 80.6979 118.028H80.5547C80.4677 118.088 80.4059 118.183 80.3824 118.292C80.359 118.401 80.3759 118.516 80.4295 118.611C80.5726 119.622 75.901 143.615 75.3462 149.39C75.3462 150.206 83.4544 150.09 84.2956 150.09C72.7329 164.808 62.3336 181.413 59.2371 200.836C39.7272 200.506 20.2174 199.981 0.707523 200.059C0.612581 200.059 0.521528 200.1 0.454394 200.172C0.38726 200.245 0.349544 200.344 0.349544 200.447C0.349544 200.551 0.38726 200.65 0.454394 200.722C0.521528 200.795 0.612581 200.836 0.707523 200.836C20.1279 201.75 39.6019 201.847 59.0402 202.003C58.4612 205.858 58.2214 209.764 58.3242 213.669C38.9934 213.241 19.6625 212.58 0.349544 212.23C-0.0800305 212.23 -0.151626 212.969 0.349544 212.969C19.6804 214.038 39.0471 214.427 58.4137 214.738C58.9149 225.296 62.7453 238.245 72.2675 242.989C76.1874 251.35 84.4925 258.874 93.7463 256.716C93.4778 258.232 93.2272 259.788 92.9587 261.343C92.8513 262.043 93.8179 262.335 93.9253 261.635C96.5564 246.236 99.295 230.759 103.895 215.905C104.038 215.438 103.394 215.263 103.233 215.71C98.758 228.621 96.2342 242.192 93.9074 255.705C84.4388 257.202 76.8855 250.65 72.9656 241.784C70.8567 237.099 69.6368 232.001 69.3785 226.794C69.1202 221.586 69.8288 216.376 71.4621 211.472C76.3485 197.862 89.361 188.14 102.141 181.49C115.135 174.801 129.09 170.586 143.398 169.027C144.418 179.41 155.408 182.929 163.785 182.385C172.162 181.84 177.12 179.06 177.836 169.883C177.943 169.883 208.067 170.602 234.074 189.482C241.717 195.023 248.662 202.139 252.725 211.18C256.698 219.91 258.094 230.623 254.515 239.723C249.396 252.983 240.052 254.908 233.859 256.094C231.67 241.857 227.442 228.08 221.33 215.263C221.169 214.933 220.668 215.146 220.829 215.496C227.203 230.427 231.55 246.282 233.734 262.568C233.734 263.074 234.665 263.21 234.665 262.568C234.592 260.788 234.377 259.019 234.02 257.28C240.77 256.649 247.02 253.157 251.418 247.558C265.737 243.67 271.984 226.851 271.107 212.036C293.97 211.025 316.809 209.728 339.624 208.147C340.251 207.894 340.018 206.941 339.481 206.941ZM68.8667 5.60767C72.1064 30.3588 74.9524 54.9738 78.5322 79.7055C81.4139 78.4806 204.129 77.7223 226.485 76.9835L230.62 4.05222C177.657 5.02437 122.564 4.59662 68.8667 5.60767ZM184.673 145.384C185.507 146.001 186.135 146.895 186.463 147.932L188.432 147.815L187.089 140.038H186.123C186.103 141.931 185.601 143.782 184.673 145.384ZM185.801 132.785C185.547 133.112 185.266 133.412 184.959 133.68C185.784 135.314 186.175 137.165 186.087 139.027H186.946C186.588 136.946 186.23 134.866 185.801 132.785ZM188.969 147.815L197.202 147.426C196.665 144.898 196.11 142.332 195.573 139.824C193.008 140.059 190.432 140.131 187.859 140.038C188.289 142.604 188.754 145.19 188.969 147.815ZM187.716 138.929H195.412L193.855 131.405L186.427 131.638L187.716 138.929ZM186.624 130.802L193.622 130.569L192.191 123.686L184.816 123.861C184.959 124.464 185.067 125.066 185.174 125.65C185.76 126.332 186.195 127.151 186.447 128.044C186.698 128.937 186.759 129.88 186.624 130.802ZM191.994 122.733C191.636 120.711 191.278 118.631 190.884 116.686L183.187 116.822C183.777 118.806 184.261 120.825 184.637 122.869L191.994 122.733ZM181.344 124.716C182.262 124.424 183.247 124.5 184.118 124.93L183.903 123.978H181.541C181.492 124.229 181.426 124.476 181.344 124.716ZM183.653 122.889C183.106 120.902 182.664 118.883 182.328 116.842H180.127C181.321 118.576 181.871 120.735 181.666 122.889H183.653ZM142.449 117.678H138.995C138.995 119.219 138.837 121.065 138.695 122.725L138.691 122.772L141.733 121.819C141.463 120.39 141.72 118.903 142.449 117.678ZM138.028 123.103V117.678L128.524 117.853C128.709 119.862 128.763 121.883 128.685 123.9L137.151 123.744C137.432 123.513 137.725 123.298 138.028 123.103ZM128.631 131.774H134.27C134.018 130.554 134.042 129.286 134.338 128.078C134.634 126.869 135.194 125.756 135.97 124.833L128.631 124.969V131.774ZM133.554 140.776H128.667C128.667 143.635 128.631 146.493 128.578 149.409H133.41C133.366 148.631 133.508 147.853 133.821 147.151C134.135 146.45 134.61 145.848 135.2 145.404C134.201 144.098 133.623 142.473 133.554 140.776ZM133.697 139.688C133.766 139.254 133.88 138.83 134.037 138.424H133.965C134.521 137.196 135.424 136.194 136.543 135.566C135.625 134.837 134.927 133.829 134.538 132.669H128.757V139.688H133.697ZM105.864 149.39H127.969C127.88 146.532 127.826 143.673 127.844 140.815L107.851 141.068C105.864 143.946 106.097 146.046 105.864 149.39ZM112.701 132.746C111.855 135.473 110.447 137.953 108.585 139.999L117.176 139.882V132.746H112.701ZM127.701 117.892L118.322 118.067C118.286 120.089 118.268 122.111 118.268 124.114L127.701 123.939C127.6 121.925 127.6 119.906 127.701 117.892ZM127.665 125.008L118.196 125.183C118.071 127.4 118.071 129.597 118.071 131.813H127.665V125.008ZM127.754 132.727H118.071C117.928 135.177 117.82 137.491 117.677 139.882L127.754 139.746V132.727ZM117.695 118.086L109.121 118.242H108.96C109.042 120.26 108.976 122.282 108.764 124.289L117.498 124.133L117.695 118.086ZM117.48 125.183L108.692 125.339L108.531 125.358C108.334 127.497 108.155 129.635 107.958 131.774C110.106 130.724 111.216 127.808 112.379 128.391C113.543 128.974 113.149 130.724 112.934 131.794H117.319L117.48 125.183ZM108.423 118.261L101.031 118.397H100.87C100.924 119.058 100.423 123.316 100.369 124.308C103.949 120.944 108.101 122.267 107.332 124.308H107.94C108.006 122.285 108.168 120.267 108.423 118.261ZM107.349 131.794C107.475 129.674 107.582 127.575 107.707 125.455H107.672H105.989C104.557 126.058 104.02 130.083 104.557 131.794H107.349ZM99.6708 124.483L99.9572 118.456L94.5338 118.495C95.8405 119.214 94.9992 121.489 96.3237 124.483H99.6708ZM98.2031 127.4C98.48 126.747 98.8286 126.133 99.2413 125.572L96.8786 125.63L98.2031 127.4ZM93.5494 118.592L87.8038 118.708L87.768 118.592L86.8015 124.639C87.4816 124.639 87.8754 123.783 88.7883 124.639H91.491C91.491 122.83 91.7595 119.525 93.5494 118.592ZM89.4326 125.727H91.4552C91.4761 126.665 91.5568 127.601 91.6967 128.526L91.7398 128.558L91.7774 128.586H91.7058L91.6967 128.526C90.7404 127.812 89.9622 126.85 89.4326 125.727ZM86.712 125.786L85.8528 131.502L87.3743 131.619C86.7588 129.752 86.5326 127.759 86.712 125.786ZM89.9338 140.232C89.4326 137.549 88.3766 135.118 87.6427 132.455L85.6381 132.435L84.5641 140.349L89.9338 140.232ZM87.0163 118.728H81.1454H81.0738C80.8873 120.846 80.5825 122.95 80.161 125.027C82.112 124.93 84.0808 124.814 86.0318 124.814C86.354 122.772 86.6762 120.672 87.0163 118.728ZM85.8528 125.825H80.0357H79.9641C79.6419 127.691 79.3197 129.577 79.0154 131.521H85.0116C85.298 129.713 85.5844 127.769 85.8528 125.825ZM84.8505 132.416C82.8816 132.377 80.9127 132.319 78.9438 132.202C78.4606 135.002 77.9952 137.802 77.5119 140.601C79.6061 140.504 81.7003 140.349 83.7945 140.349C84.1166 137.704 84.5104 135.041 84.8505 132.416ZM76.0621 149.059H82.8995C83.0347 146.512 83.2916 143.975 83.6692 141.457L77.4582 141.282C76.975 143.868 76.5096 146.454 76.0621 149.059ZM84.5283 141.282L83.4723 149.059L85.0653 149.079L90.0949 142.837C90.1485 142.321 90.1485 141.799 90.0949 141.282H84.5283ZM68.214 225.257C68.143 219.599 69.1896 213.99 71.2831 208.808L71.2115 208.827C76.9929 195.451 89.1462 187.012 101.031 180.771C102.481 170.699 104.647 157.031 105.542 145.579C105.864 140.893 108.602 139.61 110.625 136.032C113.006 131.813 112.934 127.633 111.43 129.577C107.815 134.36 102.839 135.391 103.752 128.527C103.843 127.697 104.108 126.901 104.527 126.2C104.946 125.499 105.507 124.911 106.168 124.483C108.674 122.694 100.906 121.664 98.3642 128.916C98.3105 129.091 97.5588 129.577 98.0062 128.197C96.6996 127.555 95.2498 124.133 94.9097 122.364C94.7665 121.625 94.8202 117.834 93.3883 119.894C91.4194 122.85 92.4755 127.419 93.084 130.627C93.1556 130.919 92.7081 131.502 92.1354 129.674C90.6856 129.305 89.6295 127.555 88.8957 126.019C88.1618 124.483 87.3385 124.93 87.4458 127.088C87.6069 129.985 92.2428 141.826 90.8109 143.596C81.0201 155.592 71.4621 168.094 65.4301 182.813C58.0558 200.778 54.3686 228.893 71.6948 241.609C69.472 236.491 68.285 230.915 68.214 225.257ZM105.703 150.342C104.958 160.377 103.71 170.36 101.962 180.246C114.927 173.556 128.862 169.358 143.147 167.841C141.948 157.731 134.502 156.856 133.464 150.342H105.703ZM176.672 169.261C176.798 167.663 177.086 166.085 177.531 164.555C179.339 158.509 183.563 156.759 185.317 152.151C185.767 151.158 185.897 150.03 185.686 148.948C185.475 147.865 184.935 146.891 184.154 146.182C183.127 147.334 181.914 148.27 180.574 148.943C173.683 160.161 178.552 173.013 156.822 170.816C145.582 169.611 144.275 158.742 140.409 149.312C138.689 148.636 137.147 147.515 135.916 146.046C133.41 147.562 134.592 151.179 135.916 153.123C140.337 159.656 143.094 158.839 144.293 168.172C145.653 178.652 155.354 181.724 164.304 180.927C172.734 180.246 175.956 177.505 176.672 169.261ZM223.675 125.358C223.12 123.88 222.493 122.422 221.885 120.944C218.305 117.056 210.215 121.567 212.506 130.608C213.953 128.474 216.099 127.026 218.502 126.563C217.876 125.3 216.336 123.18 217.07 121.761C218.502 119.039 222.798 124.133 223.675 125.358ZM212.739 131.424C214.309 129.427 216.42 128.018 218.77 127.4C219.777 129.658 220.431 132.082 220.704 134.574C221.184 139.521 217.721 136.037 216.01 134.314L215.978 134.282C215.339 133.569 214.283 133.255 213.759 134.091L213.763 134.1L213.795 134.185H213.705C213.722 134.152 213.74 134.121 213.759 134.091C213.43 133.207 213.084 132.307 212.739 131.424ZM255.284 214.952C250.416 200.545 238.835 190.454 226.646 183.396C224.302 171.638 222.783 159.705 222.1 147.698C222.1 145.871 216.408 144.626 214.636 137.452C214.314 136.149 213.651 132.727 215.817 135.177C217.983 137.627 221.67 139.882 221.509 134.516C221.294 128.158 217.321 123.919 217.679 122.48C218.126 120.672 221.437 124.075 221.974 124.658C223.373 126.33 224.643 128.125 225.769 130.024C225.966 130.335 226.449 130.024 226.27 129.733C225.852 128.955 225.423 128.177 224.981 127.4C225.268 126.738 222.046 120.556 222.619 119.972C223.192 119.389 225.769 121.411 226.342 121.917C229.331 124.736 229.474 126.622 230.494 128.08C230.541 128.098 230.591 128.098 230.637 128.08C230.701 128.086 230.764 128.065 230.814 128.021C230.864 127.978 230.897 127.915 230.906 127.847C230.799 126.602 230.136 125.902 229.814 125.047C229.492 124.191 228.83 122.267 229.277 121.586C229.492 121.392 230.727 122.383 230.87 122.539C232.051 123.767 233.037 125.2 233.788 126.777C239.265 136.946 237.618 143.498 238.549 144.49C252.134 161.114 266.65 185.457 269.586 207.428C271.567 222.63 267.175 240.347 252.574 245.765L252.546 245.808H252.456C252.496 245.794 252.535 245.779 252.574 245.765C258.471 236.749 258.715 225.124 255.284 214.952Z" fill="black"/>
</g>
</svg>
