<svg width="394" height="292" viewBox="0 0 394 292" fill="none" xmlns="http://www.w3.org/2000/svg">
<g id="vector">
<path id="desc" d="M1 214.328C9.8 216.328 66.6667 215.162 94 214.328H310C331.667 214.328 376.3 214.328 381.5 214.328M0 224.828C2.8 224.828 64.5 224.828 95 224.828H310H394" stroke="#222222"/>
<g id="man">
<path id="kboard" d="M121 127.21L114.5 127.328C114.138 129.285 113.692 131.706 113.212 134.328M121 127.21L116.5 158.832M121 127.21L127.5 127.091M116.5 158.832C112.167 158.76 109.476 158.6 109 158.328C109.146 157.161 109.696 153.916 110.417 149.828M116.5 158.832C118.873 158.872 121.737 158.885 125 158.876M113.212 134.328L225.5 131.971M113.212 134.328C112.831 136.411 112.428 138.621 112.028 140.828M225.5 131.971L224 125.328L216.5 125.465L222.5 156.609M225.5 131.971L227.275 139.828M227.275 139.828L112.028 140.828M227.275 139.828L229.138 148.078M112.028 140.828C111.461 143.959 110.9 147.084 110.417 149.828M110.417 149.828L140.5 149.385M229.138 148.078L231 156.328C228.338 156.418 225.493 156.512 222.5 156.609M229.138 148.078L151 149.23M222.5 156.609C219.472 156.707 216.293 156.808 213 156.911M162 158.302V126.461M162 158.302C147.801 158.624 134.657 158.848 125 158.876M162 158.302C165.45 158.224 168.962 158.14 172.5 158.052M162 126.461L151.632 126.65M162 126.461L172.5 126.269M151 149.23L151.632 126.65M151 149.23L140.5 149.385M151.632 126.65L142.5 126.817M142.5 126.817L140.5 149.385M142.5 126.817L134 126.972M134 126.972L131.5 149.23M134 126.972L127.5 127.091M127.5 127.091L125 158.876M172.5 126.269V158.052M172.5 126.269L183 126.077M172.5 158.052C176.196 157.96 179.921 157.863 183.637 157.763M183 126.077L183.637 157.763M183 126.077L193.5 125.886M183.637 157.763C187.449 157.66 191.252 157.555 195 157.448M193.5 125.886L195 157.448M193.5 125.886L201.5 125.739M195 157.448C197.872 157.365 200.711 157.282 203.5 157.199M203.5 157.199L201.5 125.739M203.5 157.199C206.746 157.103 209.923 157.006 213 156.911M201.5 125.739L216.5 125.328M213 156.911L209 125.465" stroke="#222222"/>
<g id="left">
<path d="M99.5806 190.873C85.5806 221.673 101.258 239.828 110.258 245.828L136.758 188.328C137.558 185.128 140.914 160.873 142.08 150.373C143.08 145.373 146.08 143.373 148.08 138.873C150.08 134.373 148.08 132.873 146.58 134.873C145.38 136.473 143.414 137.206 142.58 137.373C140.58 137.373 140.08 136.873 140.08 133.373C140.08 129.873 144.08 128.873 142.58 127.873C139.027 126.096 135.999 129.976 134.55 132.85C129.09 128.841 131.576 120.38 129.08 124.373C127.338 127.161 127.999 131.671 128.75 134.328C125.75 134.328 125.08 127.373 123.58 129.873C122.08 132.373 126.08 141.873 126.58 147.373C125.58 153.373 117.081 152.373 99.5806 190.873Z" fill="#EEEAE4"/>
<path d="M128.75 134.328C125.75 134.328 125.08 127.373 123.58 129.873C122.08 132.373 126.08 141.873 126.58 147.373C125.58 153.373 117.081 152.373 99.5806 190.873C85.5806 221.673 101.258 239.828 110.258 245.828L136.758 188.328C137.558 185.128 140.914 160.873 142.08 150.373C143.08 145.373 146.08 143.373 148.08 138.873C150.08 134.373 148.08 132.873 146.58 134.873C145.38 136.473 143.414 137.206 142.58 137.373C140.58 137.373 140.08 136.873 140.08 133.373C140.08 129.873 144.08 128.873 142.58 127.873C138.58 125.873 135.247 131.039 134.08 133.873M129.08 135.373C128.247 133.039 127.08 127.573 129.08 124.373C131.58 120.373 129.08 128.873 134.58 132.873" stroke="#222222"/>
</g>
<g id="right">
<path d="M261.226 154.612C260.426 157.412 264.226 180.112 266.226 191.112L290.258 252.828C316.258 243.228 311.059 210.612 304.726 195.112C300.726 183.612 286.559 161.612 278.226 151.112C278.226 150.445 278.126 148.112 277.726 144.112C277.226 139.112 273.226 132.612 270.726 129.612C268.726 127.212 268.559 128.612 268.726 129.612L268.928 131.816C267.671 130.024 265.79 128.385 264.63 127.541C263.08 126.397 262.147 126.175 261.678 126.416C260.968 126.782 261.329 128.215 262.226 129.112C263.726 130.612 263.668 132.612 263.889 133.612C263.233 132.753 262.365 131.751 261.226 130.612C260.115 129.502 259.279 128.939 258.671 128.752C256.817 128.181 257.096 131.106 258.226 132.612C258.385 132.825 258.533 133.065 258.671 133.328C259.832 135.54 260.279 139.325 260.726 141.112C261.226 143.112 259.726 146.612 256.726 142.612C253.726 138.612 253.226 142.612 254.226 145.612C255.226 148.612 259.726 152.612 261.226 154.612Z" fill="#EEEAE4"/>
<path d="M255.551 124.693C252.552 125.649 251.855 130.222 252 133.328C252.082 134.035 252.275 135.132 252.601 136.328C254.182 135.328 257.608 133.328 258.671 133.328C258.533 133.065 258.385 132.825 258.226 132.612C257.096 131.106 256.817 128.181 258.671 128.752C258.008 127.491 256.332 125.475 255.551 124.693Z" fill="white"/>
<path d="M263.889 133.612C263.668 132.612 263.726 130.612 262.226 129.112C261.329 128.215 260.968 126.782 261.678 126.416C258.988 124.614 257 124.231 255.551 124.693C256.332 125.475 258.008 127.491 258.671 128.752C259.279 128.939 260.115 129.502 261.226 130.612C262.365 131.751 263.233 132.753 263.889 133.612Z" fill="white"/>
<path d="M256.726 142.612C259.726 146.612 261.226 143.112 260.726 141.112C260.279 139.325 259.832 135.54 258.671 133.328C257.608 133.328 254.182 135.328 252.601 136.328C253.055 137.992 253.473 139.687 254.5 140.951C254.981 140.821 255.71 141.258 256.726 142.612Z" fill="white"/>
<path d="M244 47.3284C253.5 77.8284 236.5 91.3284 234.5 105.328C232.5 119.328 245.011 117.828 248.506 118.828C252 119.828 255.151 120.866 255.551 124.693M256.726 142.612C259.726 146.612 261.226 143.112 260.726 141.112C260.279 139.325 259.832 135.54 258.671 133.328M256.726 142.612C253.726 138.612 253.226 142.612 254.226 145.612C255.226 148.612 259.726 152.612 261.226 154.612C260.426 157.412 264.226 180.112 266.226 191.112L290.258 252.828C316.258 243.228 311.059 210.612 304.726 195.112C300.726 183.612 286.559 161.612 278.226 151.112C278.226 150.445 278.126 148.112 277.726 144.112C277.226 139.112 273.226 132.612 270.726 129.612C268.726 127.212 268.559 128.612 268.726 129.612L268.928 131.816C267.671 130.024 265.79 128.385 264.63 127.541C263.08 126.397 262.147 126.175 261.678 126.416M256.726 142.612C255.71 141.258 254.981 140.821 254.5 140.951C253.473 139.687 253.055 137.992 252.601 136.328M255.551 124.693C256.332 125.475 258.008 127.491 258.671 128.752M255.551 124.693C252.552 125.649 251.855 130.222 252 133.328M255.551 124.693C257 124.231 258.988 124.614 261.678 126.416M252 133.328C251.786 128.72 253.421 120.886 261.678 126.416M252 133.328C252.082 134.035 252.275 135.132 252.601 136.328M261.678 126.416C260.968 126.782 261.329 128.215 262.226 129.112C263.726 130.612 263.668 132.612 263.889 133.612C263.233 132.753 262.365 131.751 261.226 130.612C260.115 129.502 259.279 128.939 258.671 128.752M252.601 136.328C254.182 135.328 257.608 133.328 258.671 133.328M258.671 133.328C258.533 133.065 258.385 132.825 258.226 132.612C257.096 131.106 256.817 128.181 258.671 128.752" stroke="#222222"/>
</g>
<g id="head">
<path d="M175.408 156.979C170.608 151.379 173.408 147.979 175.408 146.979C189.241 144.979 218.008 142.179 222.408 146.979C227.908 152.979 221.908 157.979 219.408 160.979C216.908 163.979 216.408 164.979 215.908 167.979C215.408 170.979 215.441 175.721 209.258 179.328C203.258 182.828 196.258 182.328 190.258 179.328C184.291 176.345 181.908 171.979 181.908 167.979C181.908 163.979 181.408 163.979 175.408 156.979Z" fill="#EEEAE4"/>
<path d="M179.516 150.37C180.849 156.37 184.916 168.77 190.516 170.37C197.516 172.37 206.016 172.37 210.516 168.87C214.116 166.07 217.349 155.37 218.516 150.37C221.682 148.703 226.916 143.47 222.516 135.87C224.016 133.37 226.516 127.37 219.516 126.37C219.516 122.87 219.516 112.37 207.016 116.87C204.016 113.87 197.516 107.87 192.016 117.87C190.016 116.87 180.516 114.87 180.516 123.37C177.516 124.37 170.516 128.37 175.016 136.87C173.015 139.37 169.516 144.37 179.516 150.37Z" fill="#222222"/>
<path d="M175.408 156.979C170.608 151.379 173.408 147.979 175.408 146.979C189.241 144.979 218.008 142.179 222.408 146.979C227.908 152.979 221.908 157.979 219.408 160.979C216.908 163.979 216.408 164.979 215.908 167.979C215.408 170.979 215.441 175.721 209.258 179.328C203.258 182.828 196.258 182.328 190.258 179.328C184.291 176.345 181.908 171.979 181.908 167.979C181.908 163.979 181.408 163.979 175.408 156.979Z" stroke="#222222"/>
<path d="M179.516 150.37C180.849 156.37 184.916 168.77 190.516 170.37C197.516 172.37 206.016 172.37 210.516 168.87C214.116 166.07 217.349 155.37 218.516 150.37C221.682 148.703 226.916 143.47 222.516 135.87C224.016 133.37 226.516 127.37 219.516 126.37C219.516 122.87 219.516 112.37 207.016 116.87C204.016 113.87 197.516 107.87 192.016 117.87C190.016 116.87 180.516 114.87 180.516 123.37C177.516 124.37 170.516 128.37 175.016 136.87C173.015 139.37 169.516 144.37 179.516 150.37Z" stroke="#222222"/>
</g>
<g id="body">
<path d="M132.336 268.328C130.847 267.057 132.333 265.759 132.715 263.328C128.255 264.662 117.336 262.528 109.336 243.328C108.669 240.495 107.436 233.428 107.836 227.828C108.336 220.828 111.336 213.328 114.336 209.328C121.143 198.162 144.758 175.828 184.758 175.828H213.758C226.258 176.828 258.236 182.928 275.836 197.328C297.836 215.328 299.836 239.328 290.336 252.828C281.136 263.228 274.631 264.162 272.529 263.328C273.04 265.932 273.336 268.161 273.336 269.828C256.618 289.828 178 307.328 132.336 268.328Z" fill="#222222"/>
<path d="M142.336 222.328C139.402 233.265 134.248 253.593 132.715 263.328M259.836 222.328C263.52 232.154 270.221 251.565 272.529 263.328M132.715 263.328C132.333 265.759 130.847 267.057 132.336 268.328C178 307.328 256.618 289.828 273.336 269.828C273.336 268.161 273.04 265.932 272.529 263.328M132.715 263.328C128.255 264.662 117.336 262.528 109.336 243.328C108.669 240.495 107.436 233.428 107.836 227.828C108.336 220.828 111.336 213.328 114.336 209.328C121.143 198.162 144.758 175.828 184.758 175.828H213.758C226.258 176.828 258.236 182.928 275.836 197.328C297.836 215.328 299.836 239.328 290.336 252.828C281.136 263.228 274.631 264.162 272.529 263.328" stroke="#222222"/>
</g>
</g>
<g id="desktop">
<path id="monitorUnder" d="M175 93.8284L217 93.3284C216.833 98.4951 212.6 108.828 197 108.828C177.5 108.828 175 98.3284 175 93.8284Z" fill="#222222" stroke="#222222"/>
<g id="monitor">
<path d="M126 92.3284C122 63.1618 114.2 4.42843 115 2.82843C116 0.828427 277 -1.17157 278 0.828427C278.8 2.42843 275.667 60.8284 274 89.8284L126 92.3284Z" fill="#222222"/>
<path d="M117.5 6.32843L276.5 4.32843L272.5 76.8284L126 78.8284L117.5 6.32843Z" fill="#EEEAE4"/>
<path d="M126 92.3284C122 63.1618 114.2 4.42843 115 2.82843C116 0.828427 277 -1.17157 278 0.828427C278.8 2.42843 275.667 60.8284 274 89.8284L126 92.3284Z" stroke="#222222"/>
<path d="M117.5 6.32843L276.5 4.32843L272.5 76.8284L126 78.8284L117.5 6.32843Z" stroke="#222222"/>
</g>
<path id="list" d="M126 15.6036C142.667 14.9369 176.3 13.8036 177.5 14.6036M127.5 20.1036L170 19.1036M147.5 29.1036C159.411 28.7131 178 28.1036 178 28.1036M149 33.6036C155.833 33.6036 169.8 33.5036 171 33.1036M151.5 45.6036C162.333 45.1036 184.2 44.2036 185 44.6036M152.5 48.6036C160.333 48.6036 176.2 48.6036 177 48.6036M153.5 61.1036C165.167 61.1036 188.8 61.2036 190 61.6036M154 65.6036C163.833 65.6036 183.7 65.5036 184.5 65.1036M205 15.1036C225.833 14.7702 267.7 14.2036 268.5 14.6036M206.5 20.1036C226.667 19.7702 267.2 19.2036 268 19.6036M227 29.6036L264.5 29.1036M227 34.1036L256 33.1036M227.5 45.6036H264.5M228.5 49.6036L255 49.1036M227 61.6036C239.5 61.6036 264.8 61.6036 266 61.6036M228.5 65.6036C238.5 65.6036 258.7 65.6036 259.5 65.6036" stroke="#222222"/>
<path id="check" d="M216.5 26.6036C213.333 26.6036 207 26.7036 207 27.1036C207 27.6036 207.5 37.1036 208 37.6036C208.5 38.1036 219.5 37.6036 220 37.6036C220.5 37.6036 220 31.6036 220 30.6036M209 29.6036L213 35.1036C216.167 31.6036 222.6 24.4036 223 23.6036M140 42.6036C137 42.4369 131 42.3036 131 43.1036C131 44.1036 132.5 51.6036 133 52.1036C133.5 52.6036 144 53.1036 144 52.1036C144 51.3036 143.333 47.1036 143 45.1036M133 45.6036C134.333 46.9369 137 49.8036 137 50.6036C137 51.6036 141.5 42.1036 144 40.6036M219 43.1036H208.5V52.1036L219.5 52.6036C219.167 49.7702 218.6 43.9036 219 43.1036ZM219.5 60.1036C216.167 59.6036 209.3 58.8036 208.5 59.6036C207.7 60.4036 208.5 66.2702 209 69.1036C212.333 69.2702 219.1 69.5036 219.5 69.1036C220 68.6036 219.5 61.1036 219.5 60.1036ZM128.5 26.6036C129 30.1036 130.1 37.2036 130.5 37.6036C130.9 38.0036 138 37.1036 141.5 36.6036L140.5 27.1036L128.5 26.6036ZM145 59.1036C141.667 59.4369 134.9 60.0036 134.5 59.6036C134 59.1036 135.5 68.1036 136 68.6036C136.5 69.1036 146 68.6036 146.5 68.1036C147 67.6036 145.5 59.6036 145 59.1036Z" stroke="#222222"/>
</g>
<g id="Book">
<g id="whiteBook">
<path d="M347.946 168.673C348.446 168.673 380.046 152.773 382.446 151.173C385.224 149.321 383.716 144.47 381.493 142.173C381.184 141.977 380.867 141.776 380.543 141.571C374.331 139.241 352.377 152.494 347.946 154.673C350.42 156.941 350.875 159.837 350.462 162.5C350.073 165.003 348.916 167.3 347.946 168.673Z" fill="#EEEAE4"/>
<path d="M318.204 133.368C327.978 140.611 347.946 154.673 347.946 154.673C352.377 152.494 374.331 139.241 380.543 141.571C367.403 133.255 342.508 118.221 340.946 120.173C333.73 122.578 311.42 123.877 315.493 130.655C316.312 131.285 317.053 132.515 318.204 133.368Z" fill="#EEEAE4"/>
<path d="M347.441 168C347.388 168.249 347.885 168.673 347.946 168.673C348.916 167.3 350.073 165.003 350.462 162.5C350.875 159.837 350.42 156.941 347.946 154.673C347.946 154.673 327.978 140.611 318.204 133.368C316.865 132.376 315.986 131.475 315.493 130.655C318.006 135.455 316.135 140.84 315.088 142.673L347.441 168Z" fill="#EEEAE4"/>
<path d="M347.946 154.673C347.946 154.673 327.978 140.611 318.204 133.368M347.946 154.673C350.42 156.941 350.875 159.837 350.462 162.5M347.946 154.673C352.377 152.494 374.331 139.241 380.543 141.571M347.946 168.673C348.446 168.673 380.046 152.773 382.446 151.173C385.224 149.321 383.716 144.47 381.493 142.173M347.946 168.673C347.885 168.673 347.388 168.249 347.441 168L315.088 142.673C316.135 140.84 318.006 135.455 315.493 130.655M347.946 168.673C348.916 167.3 350.073 165.003 350.462 162.5M315.493 130.655C316.312 131.285 317.053 132.515 318.204 133.368M315.493 130.655C311.42 123.877 333.73 122.578 340.946 120.173M315.493 130.655C315.986 131.475 316.865 132.376 318.204 133.368M340.946 120.173C332.857 122.87 305.799 124.176 318.204 133.368M340.946 120.173C342.508 118.221 367.403 133.255 380.543 141.571M381.493 142.173C381.184 141.977 380.867 141.776 380.543 141.571M381.493 142.173C381.239 141.911 380.92 141.712 380.543 141.571M353.946 156.673C359.446 154.173 370.646 149.173 371.446 149.173M345.946 160.173C337.28 153.673 319.746 140.473 318.946 139.673M332.446 153.673C336.946 156.84 346.046 163.273 346.446 163.673M350.462 162.5L361.441 158" stroke="#222222"/>
</g>
<g id="blackBook">
<path fill-rule="evenodd" clip-rule="evenodd" d="M352.272 120.758C351.411 124.442 349.609 132.154 356.6 137.5C359.978 136.749 370.665 129.775 376.514 125.751L358.1 138.5C348.766 136 328.7 130 323.1 126C321.1 120 319.6 112 323.1 108C326.6 104 340.6 93 341.6 93C342.6 93 372.099 101 374.1 104C373.586 104.311 373.036 104.645 372.456 105C364.952 109.594 352.6 117.515 352.6 119C352.6 119.355 352.458 119.963 352.272 120.758ZM346.6 99C345.8 99 339.6 105 339.1 106C338.6 107 339.6 107 340.1 106.5C340.35 106.25 342.1 104.75 343.85 103.25C345.6 101.75 347.35 100.25 347.6 100C348.1 99.5 347.4 99 346.6 99ZM345.1 107C344.1 107.5 344.1 107 345.1 106C345.315 105.785 345.599 105.477 345.924 105.127C347.106 103.848 348.815 102 349.6 102C350.6 102 351.7 102.3 350.1 103.5C349.7 103.9 346.1 106.5 345.1 107ZM350.1 118C349.6 117.5 332.933 111.5 324.6 109C324.1 108.85 322.6 109 324.1 110C325.127 110.685 342.454 116.217 347.959 117.974C348.886 118.271 349.478 118.46 349.6 118.5C350.441 118.78 350.6 118.5 350.1 118Z" fill="#222222"/>
<path d="M339.1 106C339.6 105 345.8 99 346.6 99C347.4 99 348.1 99.5 347.6 100C347.35 100.25 345.6 101.75 343.85 103.25C342.1 104.75 340.35 106.25 340.1 106.5C339.6 107 338.6 107 339.1 106Z" fill="#EEEAE4"/>
<path d="M345.1 107C344.1 107.5 344.1 107 345.1 106C345.315 105.785 345.599 105.477 345.924 105.127C347.106 103.848 348.815 102 349.6 102C350.6 102 351.7 102.3 350.1 103.5C349.7 103.9 346.1 106.5 345.1 107Z" fill="#EEEAE4"/>
<path d="M324.6 109C332.933 111.5 349.6 117.5 350.1 118C350.6 118.5 350.441 118.78 349.6 118.5C349.478 118.46 348.886 118.271 347.959 117.974C342.454 116.217 325.127 110.685 324.1 110C322.6 109 324.1 108.85 324.6 109Z" fill="#EEEAE4"/>
<path d="M371.764 113.5L357.6 123C357.066 123.667 356.7 124.6 359.5 123C362.172 121.473 369.815 116.157 371.828 114.173C371.804 113.951 371.782 113.727 371.764 113.5Z" fill="#222222"/>
<path d="M357.6 129L366.1 124C367.9 123.5 369.9 123.4 363.5 127C357.1 130.6 356.9 129.833 357.6 129Z" fill="#222222"/>
<path fill-rule="evenodd" clip-rule="evenodd" d="M356.6 137.5C359.978 136.749 370.665 129.775 376.514 125.751C374.89 124.003 372.454 119.88 371.828 114.173C369.815 116.157 362.172 121.473 359.5 123C356.7 124.6 357.066 123.667 357.6 123L371.764 113.5C371.553 110.943 371.71 108.088 372.456 105C364.952 109.594 352.6 117.515 352.6 119C352.6 119.355 352.458 119.963 352.272 120.758C351.411 124.442 349.609 132.154 356.6 137.5ZM366.1 124L357.6 129C356.9 129.833 357.1 130.6 363.5 127C369.9 123.4 367.9 123.5 366.1 124Z" fill="#EEEAE4"/>
<path d="M358.384 138.911L376.797 126.163L376.799 126.163L377.274 125.835L376.88 125.411C375.331 123.743 372.939 119.72 372.325 114.119C372.325 114.118 372.325 114.117 372.325 114.116C372.301 113.899 372.28 113.681 372.262 113.46C372.262 113.46 372.262 113.459 372.262 113.459C372.06 111.009 372.202 108.275 372.895 105.318C373.408 105.004 373.898 104.706 374.358 104.428L374.805 104.157L374.516 103.723C374.336 103.454 374.04 103.203 373.698 102.97C373.347 102.729 372.906 102.478 372.396 102.22C371.373 101.703 370.035 101.137 368.497 100.549C365.419 99.3708 361.5 98.0857 357.621 96.8969C353.74 95.7077 349.891 94.6124 346.949 93.8143C345.478 93.4153 344.232 93.0901 343.321 92.8643C342.866 92.7515 342.492 92.6629 342.214 92.6021C342.076 92.5718 341.957 92.5477 341.863 92.5308C341.783 92.5166 341.682 92.5 341.6 92.5C341.475 92.5 341.362 92.5377 341.293 92.5634C341.212 92.5938 341.125 92.6344 341.037 92.68C340.859 92.7716 340.641 92.9008 340.393 93.0585C339.895 93.3751 339.243 93.8273 338.486 94.3765C336.97 95.4763 335.01 96.9814 332.975 98.6096C328.918 101.855 324.507 105.632 322.723 107.671C320.843 109.82 320.348 112.984 320.538 116.279C320.729 119.59 321.618 123.136 322.625 126.158L322.677 126.312L322.809 126.407C324.259 127.442 326.609 128.585 329.427 129.751C332.256 130.921 335.593 132.128 339.04 133.286C345.936 135.603 353.296 137.731 357.97 138.983L358.194 139.043L358.384 138.911Z" stroke="#222222"/>
</g>
</g>
<g id="pencil">
<path id="pencilHole" d="M297.038 79.8284C309.038 80.3284 309.038 86.3284 309.038 89.3284C308.871 91.6617 306.538 96.4284 298.538 96.8284C288.538 97.3284 286.538 93.3284 286.038 89.3284C285.704 85.9951 287.438 79.4284 297.038 79.8284Z" fill="black" stroke="black"/>
<g id="pencil02">
<path d="M310.038 67.8284L307.801 71.6921C307.88 72.1163 308.438 72.8375 310.038 72.3284V67.8284Z" fill="black"/>
<path d="M304.538 77.3284C306.938 79.3284 309.204 78.8284 310.038 78.3284V72.3284C308.438 72.8375 307.88 72.1163 307.801 71.6921L304.538 77.3284Z" fill="white"/>
<path d="M304.538 77.3284L298.038 106.828L304.038 108.328L310.038 78.3284C309.204 78.8284 306.938 79.3284 304.538 77.3284Z" fill="#EEEAE4"/>
<path d="M304.538 77.3284L298.038 106.828L304.038 108.328L310.038 78.3284M304.538 77.3284C306.938 79.3284 309.204 78.8284 310.038 78.3284M304.538 77.3284L307.801 71.6921M310.038 78.3284V72.3284M307.801 71.6921L310.038 67.8284V72.3284M307.801 71.6921C307.88 72.1163 308.438 72.8375 310.038 72.3284" stroke="black"/>
</g>
<g id="pencil01">
<path d="M294.038 62.3284L293.538 68.3284C294.038 68.4951 295.338 68.5284 296.538 67.3284L294.038 62.3284Z" fill="black"/>
<path d="M293.038 74.3284C295.038 75.5284 298.204 74.1618 299.538 73.3284L296.538 67.3284C295.338 68.5284 294.038 68.4951 293.538 68.3284L293.038 74.3284Z" fill="white"/>
<path d="M299.538 73.3284C298.204 74.1618 295.038 75.5284 293.038 74.3284L297.538 109.828L303.038 109.328L299.538 73.3284Z" fill="#EEEAE4"/>
<path d="M293.038 74.3284C295.038 75.5284 298.204 74.1618 299.538 73.3284M293.038 74.3284L297.538 109.828L303.038 109.328L299.538 73.3284M293.038 74.3284L293.538 68.3284M299.538 73.3284L296.538 67.3284M293.538 68.3284L294.038 62.3284L296.538 67.3284M293.538 68.3284C294.038 68.4951 295.338 68.5284 296.538 67.3284" stroke="black"/>
</g>
<path id="pencilCase" d="M286.038 88.8284C286.038 88.8284 287.038 107.828 288.538 111.828C290.038 115.828 292.538 116.828 298.538 116.828C303.338 116.828 305.871 112.828 306.538 110.828C307.371 104.328 309.038 90.8284 309.038 88.8284C307.838 93.2284 300.871 94.6618 297.538 94.8284C289.538 95.2284 286.538 90.9951 286.038 88.8284Z" fill="#EEEAE4" stroke="black"/>
</g>
<g id="pen">
<path d="M82 149.226C80 151.726 72.5 166.226 70.5 170.726C69.8672 172.15 69.37 174.142 68.9897 176.226L72.6635 179.432C74.1031 177.756 75.6363 175.93 77 174.226C81 169.226 86.5 155.726 87.5 152.726C87.5551 152.56 87.6102 152.394 87.6647 152.226C86.8599 150.226 83.5529 149.392 82 149.226Z" fill="#222222"/>
<path d="M87 145.226C84.5 144.226 84 146.726 82 149.226C83.5529 149.392 86.8599 150.226 87.6647 152.226C88.5996 149.348 89.3622 146.171 87 145.226Z" fill="#EEEAE4"/>
<path d="M68.9897 176.226C68.4086 179.411 68.1008 182.812 68 184.726C68.9564 183.674 70.725 181.689 72.6635 179.432L68.9897 176.226Z" fill="white"/>
<path d="M82 149.226C80 151.726 72.5 166.226 70.5 170.726C69.8672 172.15 69.37 174.142 68.9897 176.226M82 149.226C84 146.726 84.5 144.226 87 145.226C89.3622 146.171 88.5996 149.348 87.6647 152.226M82 149.226C83.5529 149.392 86.8599 150.226 87.6647 152.226M87.5 152.726C86.5 155.726 81 169.226 77 174.226C75.6363 175.93 74.1031 177.756 72.6635 179.432M87.5 152.726C89 154.726 88.5 154.226 89 156.726C89.4 158.726 86.5 164.892 85 167.726M87.5 152.726C87.5551 152.56 87.6102 152.394 87.6647 152.226M68.9897 176.226C68.4086 179.411 68.1008 182.812 68 184.726C68.9564 183.674 70.725 181.689 72.6635 179.432M68.9897 176.226L72.6635 179.432" stroke="#222222"/>
</g>
<g id="globe">
<g id="stay">
<path d="M34.1246 109.5C34.1246 109.5 28.1289 110.5 27.6289 119C27.1289 127.5 40.129 134.5 54.629 134.5C69.129 134.5 77.129 129 77.129 122C77.129 115 70.129 108.5 62.629 107.5C53.429 105.1 34.1246 109.5 34.1246 109.5Z" fill="#222222"/>
<path d="M38.6359 58.5L30.6359 44.5M36.1359 42C27.1359 45.8333 9.50067 56.5615 6.62405 73C3.1242 93 14.6241 107.5 34.1246 109.5M34.1246 109.5C34.1246 109.5 28.1289 110.5 27.6289 119C27.1289 127.5 40.129 134.5 54.629 134.5C69.129 134.5 77.129 129 77.129 122C77.129 115 70.129 108.5 62.629 107.5C53.429 105.1 34.1246 109.5 34.1246 109.5Z" stroke="#222222" stroke-linecap="round"/>
</g>
<g id="orb">
<path fill-rule="evenodd" clip-rule="evenodd" d="M37.4272 50.9024C28.4272 53.069 11.1272 62.5024 13.9272 82.9024C15.8008 96.5527 25.3904 104.696 34.4272 109.039C35.0939 107.16 35.8272 103.102 33.4272 101.902C30.4272 100.402 25.4272 100.902 24.9272 97.9024C24.4272 94.9024 30.4272 91.4024 29.4272 89.9024C28.4272 88.4024 19.4272 86.4024 19.9272 82.9024C20.4272 79.4024 24.4272 71.4024 29.4272 71.4024C34.4272 71.4024 34.4272 74.9024 38.9272 74.9024C43.4272 74.9024 49.9272 69.9024 50.9272 71.9024C51.9272 73.9024 55.4272 80.4024 50.9272 84.9024C46.4272 89.4024 39.9272 88.9024 39.9272 91.4024C39.9272 93.9024 51.9272 94.9024 50.9272 97.9024C49.9272 100.902 50.4272 107.667 42.4272 112.035C43.8838 112.432 45.2345 112.717 46.4272 112.902C54.4272 113.569 72.0272 111.002 78.4272 95.4024C78.9487 94.1313 79.3958 92.7922 79.7651 91.4024C76.103 91.9024 72.9272 93.9024 69.4272 89.9024C64.4272 81.9024 72.9272 74.4024 71.9272 71.9024C70.9272 69.4024 66.4272 74.9024 62.9272 73.4024C59.4272 71.9024 63.4272 70.9024 61.4272 67.4024C59.4272 63.9024 57.4272 70.4024 51.4272 63.9024C46.6272 58.7024 55.4272 52.6706 60.4272 50.3047C54.3028 48.5074 46.6898 48.4401 37.4272 50.9024ZM60.4272 99.9024C61.6272 100.302 63.2606 99.7357 63.9272 99.4024C65.9272 100.902 65.4272 101.402 66.4272 102.402C67.4272 103.402 71.4272 101.902 69.4272 97.9024C67.4272 93.9024 61.9272 94.9024 59.9272 95.4024C57.9272 95.9024 58.9272 99.4024 60.4272 99.9024Z" fill="#EEEAE4"/>
<path d="M33.4272 101.902C35.8272 103.102 35.0939 107.16 34.4272 109.039C37.2292 110.386 39.9781 111.368 42.4272 112.035C50.4272 107.667 49.9272 100.902 50.9272 97.9024C51.9272 94.9024 39.9272 93.9024 39.9272 91.4024C39.9272 88.9024 46.4272 89.4024 50.9272 84.9024C55.4272 80.4024 51.9272 73.9024 50.9272 71.9024C49.9272 69.9024 43.4272 74.9024 38.9272 74.9024C34.4272 74.9024 34.4272 71.4024 29.4272 71.4024C24.4272 71.4024 20.4272 79.4024 19.9272 82.9024C19.4272 86.4024 28.4272 88.4024 29.4272 89.9024C30.4272 91.4024 24.4272 94.9024 24.9272 97.9024C25.4272 100.902 30.4272 100.402 33.4272 101.902Z" fill="#EEEAE4"/>
<path d="M60.4272 50.3047C55.4272 52.6706 46.6272 58.7024 51.4272 63.9024C57.4272 70.4024 59.4272 63.9024 61.4272 67.4024C63.4272 70.9024 59.4272 71.9024 62.9272 73.4024C66.4272 74.9024 70.9272 69.4024 71.9272 71.9024C72.9272 74.4024 64.4272 81.9024 69.4272 89.9024C72.9272 93.9024 76.103 91.9024 79.7651 91.4024C83.7327 76.4698 78.7179 55.6722 60.4272 50.3047Z" fill="#EEEAE4"/>
<path d="M63.9272 99.4024C63.2606 99.7357 61.6272 100.302 60.4272 99.9024C58.9272 99.4024 57.9272 95.9024 59.9272 95.4024C61.9272 94.9024 67.4272 93.9024 69.4272 97.9024C71.4272 101.902 67.4272 103.402 66.4272 102.402C65.4272 101.402 65.9272 100.902 63.9272 99.4024Z" fill="#EEEAE4"/>
<path d="M34.4272 109.039C25.3904 104.696 15.8008 96.5527 13.9272 82.9024C11.1272 62.5024 28.4272 53.069 37.4272 50.9024C46.6898 48.4401 54.3028 48.5074 60.4272 50.3047M34.4272 109.039C35.0939 107.16 35.8272 103.102 33.4272 101.902C30.4272 100.402 25.4272 100.902 24.9272 97.9024C24.4272 94.9024 30.4272 91.4024 29.4272 89.9024C28.4272 88.4024 19.4272 86.4024 19.9272 82.9024C20.4272 79.4024 24.4272 71.4024 29.4272 71.4024C34.4272 71.4024 34.4272 74.9024 38.9272 74.9024C43.4272 74.9024 49.9272 69.9024 50.9272 71.9024C51.9272 73.9024 55.4272 80.4024 50.9272 84.9024C46.4272 89.4024 39.9272 88.9024 39.9272 91.4024C39.9272 93.9024 51.9272 94.9024 50.9272 97.9024C49.9272 100.902 50.4272 107.667 42.4272 112.035M34.4272 109.039C37.2292 110.386 39.9781 111.368 42.4272 112.035M42.4272 112.035C43.8838 112.432 45.2345 112.717 46.4272 112.902C54.4272 113.569 72.0272 111.002 78.4272 95.4024C78.9487 94.1313 79.3958 92.7922 79.7651 91.4024M60.4272 50.3047C55.4272 52.6706 46.6272 58.7024 51.4272 63.9024C57.4272 70.4024 59.4272 63.9024 61.4272 67.4024C63.4272 70.9024 59.4272 71.9024 62.9272 73.4024C66.4272 74.9024 70.9272 69.4024 71.9272 71.9024C72.9272 74.4024 64.4272 81.9024 69.4272 89.9024C72.9272 93.9024 76.103 91.9024 79.7651 91.4024M60.4272 50.3047C78.7179 55.6722 83.7328 76.4698 79.7651 91.4024M63.9272 99.4024C63.2606 99.7357 61.6272 100.302 60.4272 99.9024C58.9272 99.4024 57.9272 95.9024 59.9272 95.4024C61.9272 94.9024 67.4272 93.9024 69.4272 97.9024C71.4272 101.902 67.4272 103.402 66.4272 102.402C65.4272 101.402 65.9272 100.902 63.9272 99.4024Z" stroke="#222222"/>
</g>
</g>
</g>
</svg>
