<svg width="24" height="24" viewBox="0 0 24 24" fill="none" xmlns="http://www.w3.org/2000/svg">
<path fill-rule="evenodd" clip-rule="evenodd" d="M24 12C24 18.6274 18.6274 24 12 24C5.37258 24 0 18.6274 0 12C0 5.37258 5.37258 0 12 0C18.6274 0 24 5.37258 24 12ZM18.1818 7H6V10.9091H18.1818V7ZM6 6H5V7V10.9091V11.9091H6H18.1818H19.1818V10.9091V7V6H18.1818H6ZM6 14.0909H9.90909V18H6V14.0909ZM5 13.0909H6H9.90909H10.9091V14.0909V18V19H9.90909H6H5V18V14.0909V13.0909ZM19.1818 15.4546H13.2727V14.4546H19.1818V15.4546ZM13.2727 17.8182H19.1818V16.8182H13.2727V17.8182Z" fill="#222222"/>
</svg>
