<svg width="1004" height="1871" viewBox="0 0 1004 1871" fill="none" xmlns="http://www.w3.org/2000/svg">
<path id="cat" d="M204.555 1547.81C232.555 1567.31 292.055 1615.81 306.055 1653.81C323.555 1701.31 348.555 1789.31 330.555 1823.31C312.555 1857.31 294.555 1870.31 266.055 1868.81C237.555 1867.31 129.055 1839.81 91.055 1801.31C53.055 1762.81 0.0549737 1682.31 2.05497 1630.81C4.05497 1579.31 13.0549 1478.31 75.5549 1419.31C138.055 1360.31 173.055 1322.31 239.555 1313.81C282.222 1307.81 377.055 1301.41 415.055 1323.81C462.555 1351.81 546.555 1399.31 574.555 1482.31C602.555 1565.31 612.555 1667.31 596.055 1706.81C579.555 1746.31 576.555 1754.31 562.055 1756.81C547.555 1759.31 527.055 1755.81 524.055 1745.31C521.055 1734.81 536.055 1735.31 546.055 1735.31C556.055 1735.31 615.055 1732.31 625.555 1752.81C636.055 1773.31 626.055 1792.31 609.055 1807.81C592.055 1823.31 547.055 1832.31 515.555 1830.81C484.055 1829.31 373.555 1823.81 352.055 1819.31C330.555 1814.81 296.555 1804.81 277.555 1788.31C258.555 1771.81 160.555 1679.31 132.555 1595.31C104.555 1511.31 69.5549 1381.81 75.5549 1313.81C81.5549 1245.81 96.5549 1175.81 107.055 1152.81C117.555 1129.81 172.055 1007.31 211.555 963.308C251.055 919.308 350.555 819.308 393.555 794.308C436.555 769.308 519.555 730.808 554.055 729.808C588.555 728.808 630.555 728.308 648.555 770.308C666.555 812.308 680.555 854.308 683.055 887.308C685.555 920.308 691.555 1083.81 690.055 1102.81C688.555 1121.81 681.055 1239.81 679.055 1265.31C677.055 1290.81 679.055 1441.31 679.055 1464.81C679.055 1488.31 692.555 1591.81 698.055 1625.31C703.555 1658.81 730.055 1756.31 743.055 1776.31C756.055 1796.31 770.055 1815.81 782.555 1818.31C795.055 1820.81 878.555 1823.31 889.055 1818.31C899.555 1813.31 913.055 1807.31 913.555 1791.81C914.055 1776.31 914.555 1756.31 899.555 1744.81C884.555 1733.31 860.555 1730.81 841.555 1729.81C822.555 1728.81 816.555 1730.81 819.555 1737.81C822.555 1744.81 835.055 1752.81 845.555 1752.81C856.055 1752.81 859.555 1726.31 858.055 1706.81C856.555 1687.31 845.555 1559.31 845.555 1516.31C845.555 1473.31 843.555 1387.81 860.555 1333.31C877.555 1278.81 913.055 1167.81 929.555 1137.31C946.055 1106.81 987.555 988.308 990.555 965.808C993.555 943.308 1003.55 788.808 1002.05 770.308C1000.55 751.808 985.055 596.308 975.555 562.808C966.055 529.308 919.055 374.308 896.055 326.808C873.055 279.308 784.055 124.308 728.055 74.8077C672.055 25.3077 640.055 -1.19235 630.555 2.30765C621.055 5.80765 625.055 20.8076 630.555 39.8076C636.055 58.8076 667.055 128.808 651.555 153.308C636.055 177.808 626.055 186.808 604.055 183.808C582.055 180.808 532.055 119.308 527.555 106.308C523.055 93.3076 525.555 90.3076 540.555 98.3076C555.555 106.308 579.555 116.808 571.055 131.308C562.555 145.808 531.555 181.308 500.055 204.308C468.555 227.308 448.055 251.808 446.555 263.808C445.055 275.808 455.055 306.308 446.555 328.308C438.055 350.308 426.055 374.308 423.555 384.808C421.055 395.308 415.055 415.808 411.555 420.308C408.055 424.808 395.055 445.808 393.555 452.808C392.055 459.808 391.055 460.808 403.555 472.808C416.055 484.808 446.555 499.308 446.555 502.808C446.555 506.308 464.055 518.808 472.555 519.308C481.055 519.808 484.055 522.808 506.055 519.308C523.655 516.508 603.388 495.141 641.055 484.808" stroke="#eeeae4" stroke-width="3" stroke-linecap="round"/>
</svg>
