<svg width="24" height="24" viewBox="0 0 24 24" fill="none" xmlns="http://www.w3.org/2000/svg">
<path fill-rule="evenodd" clip-rule="evenodd" d="M12 24C15.1729 24 18.0582 22.7686 20.204 20.7576L14.4253 13.8708L12.3842 16.3201C12.2892 16.4341 12.1485 16.5 12.0001 16.5C11.8517 16.5 11.711 16.4341 11.616 16.3201L9.54353 13.8332L3.76094 20.7246C5.91034 22.7551 8.80979 24 12 24ZM8.89307 13.0526L2.21993 5.04493C0.82214 7.00694 0 9.40746 0 12C0 15.0756 1.15708 17.881 3.05969 20.0046L8.89307 13.0526ZM2.84865 4.23735C5.0498 1.645 8.33279 0 12 0C15.6672 0 18.9502 1.645 21.1514 4.23736L12.0001 15.219L2.84865 4.23735ZM21.7801 5.04494C23.1779 7.00694 24 9.40746 24 12C24 15.0931 22.8297 17.9129 20.9078 20.0407L15.0757 13.0902L21.7801 5.04494Z" fill="#222222"/>
</svg>
